<svg fill="#4F575A" height="34" version="1.1" viewBox="0 0 34 34" width="34" xmlns="http://www.w3.org/2000/svg"><path d="m4 4l0 6 6 0 0-6-6 0z" fill="#4F575A"/><path d="m14 4l0 6 6 0 0-6-6 0z" fill="#4F575A"/><path d="m24 4l0 6 6 0 0-6-6 0z" fill="#4F575A"/><path d="m4 14l0 6 6 0 0-6-6 0z" fill="#4F575A"/><path d="m14 14l0 6 6 0 0-6-6 0z" fill="#4F575A"/><path d="m24 14l0 6 6 0 0-6-6 0z" fill="#4F575A"/><path d="m4 24l0 6 6 0 0-6-6 0z" fill="#4F575A"/><path d="m14 24l0 6 6 0 0-6-6 0z" fill="#4F575A"/><path d="m24 24l0 6 6 0 0-6-6 0z" fill="#4F575A"/></svg>