<?xml version="1.0" encoding="UTF-8" standalone="no"?>
<svg
   xmlns:dc="http://purl.org/dc/elements/1.1/"
   xmlns:cc="http://creativecommons.org/ns#"
   xmlns:rdf="http://www.w3.org/1999/02/22-rdf-syntax-ns#"
   xmlns:svg="http://www.w3.org/2000/svg"
   xmlns="http://www.w3.org/2000/svg"
   xmlns:sodipodi="http://sodipodi.sourceforge.net/DTD/sodipodi-0.dtd"
   xmlns:inkscape="http://www.inkscape.org/namespaces/inkscape"
   fill="#419236"
   height="48"
   version="1.1"
   viewBox="0 0 48 48"
   width="48"
   id="svg16"
   sodipodi:docname="system-file-manager-fedora.svg"
   inkscape:version="0.92.3 (2405546, 2018-03-11)">
  <metadata
     id="metadata22">
    <rdf:RDF>
      <cc:Work
         rdf:about="">
        <dc:format>image/svg+xml</dc:format>
        <dc:type
           rdf:resource="http://purl.org/dc/dcmitype/StillImage" />
      </cc:Work>
    </rdf:RDF>
  </metadata>
  <defs
     id="defs20" />
  <sodipodi:namedview
     pagecolor="#ffffff"
     bordercolor="#666666"
     borderopacity="1"
     objecttolerance="10"
     gridtolerance="10"
     guidetolerance="10"
     inkscape:pageopacity="0"
     inkscape:pageshadow="2"
     inkscape:window-width="841"
     inkscape:window-height="480"
     id="namedview18"
     showgrid="false"
     inkscape:zoom="4.9166667"
     inkscape:cx="1.4237288"
     inkscape:cy="24"
     inkscape:window-x="38"
     inkscape:window-y="0"
     inkscape:window-maximized="0"
     inkscape:current-layer="svg16" />
  <path
     d="M20 5L16 9 16 13 8 13C5.79 13 4.019531 14.79 4.019531 17L4 39C4 41.21 5.79 43 8 43L40 43C42.21 43 44 41.21 44 39L44 17C44 14.79 42.21 13 40 13L32 13 32 9 28 5 20 5zM20 9L28 9 28 13 20 13 20 9z"
     fill="#294172"
     id="path2"
     style="fill:#4f575a;fill-opacity:1" />
  <g
     transform="matrix(.08668179 0 0 .09070529 -6.935791 32.722155)"
     id="g14">
    <path
       d="m303.974441-52.107769c0 0 47.844751 0 47.844751 0 0 0 0 47.84478 0 47.84478 0 26.41029-21.43445 47.84473-47.844751 47.84473-26.41031 0-47.844759-21.43444-47.844759-47.84473 0-26.41031 21.434449-47.84478 47.844759-47.84478z"
       fill="none"
       stroke="#3c6eb4"
       stroke-width="29.209999"
       id="path4" />
    <path
       d="m399.433373-52.014689c0 0-47.844751 0-47.844751 0 0 0 0-47.84478 0-47.84478 0-26.41029 21.43445-47.84473 47.844751-47.84473 26.41031 0 47.844759 21.43444 47.844759 47.84473 0 26.41031-21.434449 47.84478-47.844759 47.84478z"
       fill="none"
       stroke="#3c6eb4"
       stroke-width="29.209999"
       id="path6" />
    <path
       d="m366.455552-66.676099l0 62.34618c0 34.50402-27.97537 62.48-62.48061 62.48-5.23494 0-8.95649-.59101-13.80235-1.8577-7.06595-1.84912-12.84046-7.64253-12.84286-14.38111 0-8.14513 5.91236-14.0699 14.75029-14.0699 4.20637 0 5.73267.80765 11.89492.80765 18.19161 0 32.94764-14.73519 32.97955-32.92679l0-28.65657c0-2.56775-2.08663-4.64825-4.65867-4.64825l-21.66521-.00428c-8.07212 0-14.59401-6.43843-14.59401-14.53266-.00431-8.14456 6.5888-14.55657 14.74808-14.55657"
       fill="#fff"
       id="path8" />
    <path
       d="m336.952272-37.446349l0-62.34618c0-34.50402 27.97537-62.48 62.48061-62.48 5.23494 0 8.95649.59101 13.80235 1.8577 7.06595 1.84912 12.84046 7.64253 12.84286 14.38111 0 8.14513-5.91236 14.0699-14.75029 14.0699-4.20637 0-5.73267-.80765-11.89492-.80765-18.19161 0-32.94764 14.73519-32.97955 32.92679l0 28.65657c0 2.56775 2.08663 4.64825 4.65867 4.64825l21.66521.00428c8.07212 0 14.59401 6.43843 14.59401 14.53266.00431 8.14456-6.5888 14.55657-14.74808 14.55657"
       fill="#fff"
       id="path10" />
    <path
       d="m470.502712 49.378921c0 0 .00004-5.53139.00004-5.53139l-2.52853 5.79776c0 0-2.46141-5.79776-2.46141-5.79776l.00047 5.53139-1.4183 0 0-8.73492 1.48704 0c0 0 2.43397 5.58051 2.43397 5.58051l2.39711-5.58051 1.50544 0 0 8.73492-1.41583 0zm-10.33302-7.27184l0 7.27184-1.48213 0 0-7.27184-2.48488 0 0-1.46308 6.44946 0 0 1.46308"
       fill="#3c6eb4"
       id="path12" />
  </g>
</svg>
