<?xml version="1.0" encoding="UTF-8" standalone="no"?>
<svg
   xmlns:dc="http://purl.org/dc/elements/1.1/"
   xmlns:cc="http://creativecommons.org/ns#"
   xmlns:rdf="http://www.w3.org/1999/02/22-rdf-syntax-ns#"
   xmlns:svg="http://www.w3.org/2000/svg"
   xmlns="http://www.w3.org/2000/svg"
   xmlns:sodipodi="http://sodipodi.sourceforge.net/DTD/sodipodi-0.dtd"
   xmlns:inkscape="http://www.inkscape.org/namespaces/inkscape"
   height="48"
   preserveAspectRatio="xMidYMid"
   version="1.1"
   width="48"
   id="svg12"
   sodipodi:docname="atom-outline.svg"
   inkscape:version="0.92.3 (2405546, 2018-03-11)">
  <metadata
     id="metadata18">
    <rdf:RDF>
      <cc:Work
         rdf:about="">
        <dc:format>image/svg+xml</dc:format>
        <dc:type
           rdf:resource="http://purl.org/dc/dcmitype/StillImage" />
      </cc:Work>
    </rdf:RDF>
  </metadata>
  <defs
     id="defs16" />
  <sodipodi:namedview
     pagecolor="#4F575A"
     bordercolor="#4F575A"
     borderopacity="1"
     objecttolerance="10"
     gridtolerance="10"
     guidetolerance="10"
     inkscape:pageopacity="0"
     inkscape:pageshadow="2"
     inkscape:window-width="1326"
     inkscape:window-height="740"
     id="namedview14"
     showgrid="false"
     inkscape:zoom="4.9166667"
     inkscape:cx="-1.6271186"
     inkscape:cy="24"
     inkscape:window-x="38"
     inkscape:window-y="0"
     inkscape:window-maximized="1"
     inkscape:current-layer="svg12" />
  <circle
     style="fill:#4F575A;stroke-width:0.15642108"
     id="circle2"
     r="20"
     cy="24"
     cx="24" />
  <circle
     style="fill:#4F575A;stroke-width:0.15642108"
     id="circle4"
     r="18.287189"
     cy="24.021898"
     cx="23.9781" />
  <path
     style="fill:#4F575A;fill-opacity:1"
     inkscape:connector-curvature="0"
     id="path6"
     d="m 19.6906,21.200062 c -0.214296,0.331613 -0.422337,0.66479 -0.622555,0.997966 -0.21899,-0.603785 -0.412952,-1.199749 -0.578758,-1.780071 0.585014,-0.0829 1.204442,-0.1486 1.86141,-0.195527 -0.223682,0.319099 -0.444236,0.644455 -0.660097,0.977632 z m 16.13327,1.168465 c -0.656968,-0.619427 -1.579853,-1.1888 -2.753011,-1.689347 -2.330674,-0.994838 -5.459095,-1.639293 -8.806507,-1.814484 -0.406694,-0.02033 -0.797747,-0.03598 -1.173158,-0.04223 2.549664,-3.050211 5.021117,-4.669169 6.444549,-4.723916 0.2972,-0.01095 0.563116,0.04693 0.750821,0.17832 0.672611,0.437979 0.860316,1.791021 0.500548,3.624276 -0.07821,0.375411 0.156421,0.719537 0.531831,0.797748 0.359769,0.07821 0.703895,-0.156422 0.782106,-0.51619 0.610042,-3.144064 -0.250274,-4.458001 -1.079306,-4.989833 -0.437979,-0.281557 -0.954168,-0.406694 -1.548569,-0.391052 -2.205537,0.09385 -5.302674,2.440169 -8.133896,6.069138 -1.126231,0.04693 -2.205537,0.140779 -3.206632,0.2972 -0.109494,-0.500548 -0.203347,-1.001095 -0.265915,-1.486001 -0.250274,-2.0804 0.06257,-3.5664 0.829031,-3.957453 0.125137,-0.06257 0.265916,-0.09385 0.422337,-0.109495 0.688253,-0.04693 1.658063,0.422337 2.737369,1.313937 0.281558,0.234632 0.703895,0.203348 0.938526,-0.09385 0.234632,-0.281558 0.187706,-0.703895 -0.09385,-0.938527 -1.392148,-1.141874 -2.627874,-1.689347 -3.70718,-1.611137 -0.328484,0.03128 -0.641326,0.109495 -0.922884,0.250274 -0.719537,0.375411 -1.204442,1.079305 -1.454716,2.096042 -0.21899,0.875958 -0.250274,1.955264 -0.09385,3.222275 0.06257,0.500547 0.140779,1.032379 0.265916,1.56421 -0.797747,0.172064 -1.517284,0.37541 -2.174253,0.610042 -2.862506,1.032379 -3.535116,2.408885 -3.582043,3.363053 -0.04693,0.922885 0.422337,2.283748 2.940717,3.582043 0.328484,0.172063 0.735179,0.04693 0.907242,-0.281558 0.156421,-0.328484 0.03128,-0.735179 -0.2972,-0.8916 -1.439074,-0.750821 -2.252464,-1.595495 -2.221179,-2.330674 0.04693,-1.032379 1.7832,-2.127327 4.723916,-2.74519 0.281558,0.985453 0.625685,2.006882 1.048021,3.050211 -1.063663,1.986548 -1.830126,3.946504 -2.236821,5.693727 -0.281558,1.243548 -0.369154,2.330674 -0.250274,3.212889 0.140779,1.032379 0.563116,1.783201 1.235727,2.22118 0.344126,0.218989 0.813389,0.391052 1.423432,0.391052 0.8916,0 2.0804,-0.364461 3.650867,-1.486 0.2972,-0.21899 0.364461,-0.633505 0.156421,-0.93227 -0.218989,-0.306585 -0.636633,-0.37541 -0.938526,-0.156421 -1.554825,1.101205 -2.89379,1.501643 -3.571093,1.054278 -0.72423,-0.473956 -0.875958,-1.975598 -0.406695,-4.024714 0.312842,-1.349914 0.868137,-2.862506 1.626779,-4.411074 0.164243,0.359768 0.334742,0.703894 0.51619,1.05897 1.517284,2.987643 3.378695,5.584233 5.240106,7.320507 0.938526,0.869701 1.830126,1.486 2.659158,1.822305 0.500548,0.203348 0.976068,0.312843 1.414047,0.312843 0.406695,0 0.782105,-0.09385 1.138745,-0.265916 0.688253,-0.359769 1.173158,-1.016737 1.423432,-1.986548 0.21899,-0.829032 0.265916,-1.852026 0.145472,-3.050211 -0.239325,-2.366651 -1.132489,-5.249492 -2.51838,-8.118254 -0.156421,-0.334741 -0.555295,-0.473956 -0.8916,-0.312842 -0.328484,0.156421 -0.469263,0.556859 -0.312842,0.8916 1.313937,2.732676 2.16956,5.459096 2.393242,7.672454 0.203348,1.939621 -0.125136,3.331769 -0.860315,3.707179 -0.766464,0.391053 -2.147662,-0.229939 -3.683717,-1.658063 -1.751916,-1.626779 -3.510089,-4.098232 -4.958548,-6.945096 -0.334741,-0.656969 -0.641327,-1.30768 -0.922884,-1.955263 0.344126,-0.619428 0.719536,-1.235727 1.110589,-1.85359 0.406695,-0.625685 0.829032,-1.220085 1.235727,-1.783201 h 0.328484 c 0.578758,0 1.1888,0.01564 1.830127,0.04693 3.19099,0.172063 6.16299,0.766463 8.352885,1.70499 1.939622,0.829031 3.065853,1.830126 3.018927,2.706084 -0.03598,0.735179 -0.930705,1.49695 -2.455811,2.088222 -0.344126,0.132958 -0.516189,0.520882 -0.37541,0.860316 0.09385,0.265915 0.351947,0.422336 0.625684,0.422336 0.07821,0 0.156421,-0.01564 0.234632,-0.04693 2.643516,-1.019865 3.253558,-2.333802 3.300484,-3.256687 0.04693,-0.807133 -0.312842,-1.579853 -1.06992,-2.307211 z" />
  <path
     style="fill:#4F575A;fill-opacity:1"
     inkscape:connector-curvature="0"
     id="path8"
     d="m 22.623495,24.176755 c 0,0.807133 0.652276,1.459409 1.457845,1.459409 0.805568,0 1.457844,-0.652276 1.457844,-1.459409 0,-0.805568 -0.652276,-1.459409 -1.457844,-1.459409 -0.805569,0 -1.459409,0.653841 -1.459409,1.459409" />
</svg>
