<?xml version="1.0" encoding="UTF-8" standalone="no"?>
<svg
   xmlns:dc="http://purl.org/dc/elements/1.1/"
   xmlns:cc="http://creativecommons.org/ns#"
   xmlns:rdf="http://www.w3.org/1999/02/22-rdf-syntax-ns#"
   xmlns:svg="http://www.w3.org/2000/svg"
   xmlns="http://www.w3.org/2000/svg"
   xmlns:sodipodi="http://sodipodi.sourceforge.net/DTD/sodipodi-0.dtd"
   xmlns:inkscape="http://www.inkscape.org/namespaces/inkscape"
   height="48"
   preserveAspectRatio="xMidYMid"
   version="1.1"
   width="48"
   id="svg10"
   sodipodi:docname="atom-editor.svg"
   inkscape:version="0.92.3 (2405546, 2018-03-11)">
  <metadata
     id="metadata16">
    <rdf:RDF>
      <cc:Work
         rdf:about="">
        <dc:format>image/svg+xml</dc:format>
        <dc:type
           rdf:resource="http://purl.org/dc/dcmitype/StillImage" />
      </cc:Work>
    </rdf:RDF>
  </metadata>
  <defs
     id="defs14" />
  <sodipodi:namedview
     pagecolor="#4F575A"
     bordercolor="#4F575A"
     borderopacity="1"
     objecttolerance="10"
     gridtolerance="10"
     guidetolerance="10"
     inkscape:pageopacity="0"
     inkscape:pageshadow="2"
     inkscape:window-width="1326"
     inkscape:window-height="740"
     id="namedview12"
     showgrid="false"
     inkscape:zoom="4.9166667"
     inkscape:cx="-1.6271186"
     inkscape:cy="24"
     inkscape:window-x="38"
     inkscape:window-y="0"
     inkscape:window-maximized="1"
     inkscape:current-layer="svg10" />
  <circle
     style="fill:#4F575A;stroke-width:0.17107175"
     id="circle2"
     r="20"
     cy="24"
     cx="24.000002" />
  <path
     style="fill:#4F575A;fill-opacity:0.94117647"
     inkscape:connector-curvature="0"
     id="path4"
     d="m 19.310927,20.913866 c -0.234368,0.362672 -0.461893,0.727055 -0.680865,1.091438 -0.239501,-0.660337 -0.45163,-1.312121 -0.632966,-1.946797 0.639809,-0.09067 1.317252,-0.162518 2.035754,-0.21384 -0.244633,0.348987 -0.485844,0.704816 -0.721923,1.069199 z m 17.644341,1.277906 c -0.718501,-0.677444 -1.727824,-1.300146 -3.010863,-1.847575 -2.548969,-1.088017 -5.970404,-1.792832 -9.63134,-1.984432 -0.444786,-0.02224 -0.872466,-0.03935 -1.283038,-0.04619 2.78847,-3.3359 5.491404,-5.106492 7.048157,-5.166367 0.325036,-0.01198 0.615858,0.05132 0.821144,0.195021 0.735609,0.479001 0.940895,1.958772 0.54743,3.963733 -0.08554,0.410572 0.171071,0.78693 0.581644,0.872466 0.393465,0.08554 0.769823,-0.171072 0.855358,-0.564537 0.66718,-3.438542 -0.273714,-4.875545 -1.180395,-5.457189 -0.479001,-0.307929 -1.043537,-0.444787 -1.69361,-0.427679 -2.412112,0.102643 -5.799333,2.668719 -8.895732,6.637584 -1.231716,0.05132 -2.412111,0.153964 -3.50697,0.325036 -0.119751,-0.547429 -0.222394,-1.094859 -0.290822,-1.625181 -0.273715,-2.275255 0.06843,-3.900437 0.90668,-4.328116 0.136857,-0.06843 0.290822,-0.102643 0.461894,-0.11975 0.752715,-0.05132 1.81336,0.461894 2.993755,1.437003 0.307929,0.256607 0.769823,0.222393 1.026431,-0.102644 0.256607,-0.307929 0.205286,-0.769822 -0.102643,-1.02643 -1.522539,-1.248824 -2.874006,-1.847575 -4.054401,-1.762039 -0.35925,0.03421 -0.701394,0.11975 -1.009323,0.273715 -0.78693,0.410572 -1.317253,1.180395 -1.590968,2.292361 -0.2395,0.958002 -0.273714,2.138397 -0.102643,3.524078 0.06843,0.54743 0.153965,1.129074 0.290822,1.710718 -0.872466,0.188179 -1.659396,0.410572 -2.377897,0.667179 -3.130613,1.129074 -3.8662218,2.634505 -3.9175433,3.678043 -0.051322,1.009323 0.4618933,2.497648 3.2161493,3.917543 0.35925,0.188179 0.804037,0.05132 0.992216,-0.307929 0.171072,-0.35925 0.03421,-0.804037 -0.325036,-0.975109 -1.573861,-0.821144 -2.463434,-1.744932 -2.429219,-2.548969 0.05132,-1.129074 1.950218,-2.326576 5.166367,-3.002309 0.307929,1.077752 0.684287,2.19485 1.146181,3.335899 -1.163288,2.172611 -2.00154,4.31614 -2.446327,6.227012 -0.307929,1.36002 -0.403729,2.548969 -0.273714,3.513814 0.153964,1.129074 0.615858,1.950218 1.351466,2.429219 0.376358,0.2395 0.889574,0.427679 1.556754,0.427679 0.975109,0 2.275254,-0.398597 3.992814,-1.625181 0.325036,-0.239501 0.398597,-0.692841 0.171072,-1.019588 -0.239501,-0.335301 -0.696262,-0.410572 -1.026431,-0.171072 -1.700453,1.204345 -3.164827,1.642289 -3.905568,1.153024 -0.792062,-0.518348 -0.958002,-2.160637 -0.444786,-4.401677 0.342143,-1.476349 0.949448,-3.130613 1.779146,-4.824223 0.179625,0.393465 0.366094,0.769823 0.564537,1.158156 1.659396,3.26747 3.69515,6.107261 5.730903,8.006158 1.026431,0.951159 2.00154,1.625182 2.90822,1.992986 0.54743,0.222393 1.067488,0.342143 1.546489,0.342143 0.444787,0 0.855359,-0.102643 1.245402,-0.290822 0.752716,-0.393465 1.283039,-1.111966 1.556754,-2.172611 0.2395,-0.90668 0.290822,-2.025489 0.159096,-3.335899 -0.26174,-2.588316 -1.238559,-5.741168 -2.754255,-8.878625 -0.171072,-0.366093 -0.607305,-0.518347 -0.975109,-0.342143 -0.359251,0.171072 -0.513215,0.609015 -0.342144,0.975109 1.437003,2.988624 2.372766,5.970404 2.617398,8.39107 0.222394,2.12129 -0.136857,3.643828 -0.940894,4.054401 -0.838252,0.427679 -2.348816,-0.251476 -4.02874,-1.813361 -1.916004,-1.779146 -3.838851,-4.48208 -5.422975,-7.595586 -0.366094,-0.718502 -0.701394,-1.43016 -1.009323,-2.138397 0.376357,-0.677444 0.78693,-1.351467 1.214609,-2.027201 0.444787,-0.684287 0.90668,-1.334359 1.351467,-1.950218 h 0.359251 c 0.632965,0 1.300145,0.01711 2.001539,0.05132 3.489864,0.188179 6.740228,0.838251 9.135232,1.864682 2.12129,0.90668 3.353007,2.00154 3.301685,2.959541 -0.03935,0.804038 -1.017877,1.637157 -2.685827,2.283808 -0.376357,0.145411 -0.564536,0.569669 -0.410572,0.940895 0.102643,0.290822 0.384912,0.461894 0.684287,0.461894 0.08554,0 0.171072,-0.01711 0.256608,-0.05132 2.891113,-1.115388 3.558293,-2.55239 3.609614,-3.561714 0.05132,-0.88273 -0.342143,-1.727824 -1.170131,-2.523308 z" />
  <path
     style="fill:#4F575A;fill-opacity:1"
     inkscape:connector-curvature="0"
     id="path6"
     d="m 22.518522,24.169361 c 0,0.882731 0.71337,1.5961 1.594389,1.5961 0.88102,0 1.594389,-0.713369 1.594389,-1.5961 0,-0.881019 -0.713369,-1.596099 -1.594389,-1.596099 -0.881019,0 -1.596099,0.71508 -1.596099,1.596099" />
</svg>
