<?xml version="1.0" encoding="UTF-8" standalone="no"?>
<svg
   xmlns:dc="http://purl.org/dc/elements/1.1/"
   xmlns:cc="http://creativecommons.org/ns#"
   xmlns:rdf="http://www.w3.org/1999/02/22-rdf-syntax-ns#"
   xmlns:svg="http://www.w3.org/2000/svg"
   xmlns="http://www.w3.org/2000/svg"
   xmlns:xlink="http://www.w3.org/1999/xlink"
   xmlns:sodipodi="http://sodipodi.sourceforge.net/DTD/sodipodi-0.dtd"
   xmlns:inkscape="http://www.inkscape.org/namespaces/inkscape"
   fill="#4F575A"
   height="48"
   version="1.1"
   viewBox="0 0 48 48"
   width="48"
   id="svg14"
   sodipodi:docname="Thunar.svg"
   inkscape:version="0.92.3 (2405546, 2018-03-11)">
  <metadata
     id="metadata18">
    <rdf:RDF>
      <cc:Work
         rdf:about="">
        <dc:format>image/svg+xml</dc:format>
        <dc:type
           rdf:resource="http://purl.org/dc/dcmitype/StillImage" />
      </cc:Work>
    </rdf:RDF>
  </metadata>
  <sodipodi:namedview
     pagecolor="#4F575A"
     bordercolor="#4F575A"
     borderopacity="1"
     objecttolerance="10"
     gridtolerance="10"
     guidetolerance="10"
     inkscape:pageopacity="0"
     inkscape:pageshadow="2"
     inkscape:window-width="1326"
     inkscape:window-height="740"
     id="namedview16"
     showgrid="false"
     inkscape:zoom="4.9166667"
     inkscape:cx="-32.745763"
     inkscape:cy="24"
     inkscape:window-x="38"
     inkscape:window-y="0"
     inkscape:window-maximized="1"
     inkscape:current-layer="svg14" />
  <defs
     id="defs8"><linearGradient
   id="a">
  <stop
     offset="0"
     stop-color="#4F575A"
     id="stop2" />
  <stop
     offset="1"
     stop-color="#4F575A"
     stop-opacity="0"
     id="stop4" />
</linearGradient>
<linearGradient
   id="b"
   gradientTransform="translate(-110.111885 -10.697609)"
   gradientUnits="userSpaceOnUse"
   x1="21.664345"
   x2="29"
   xlink:href="#4F575A" />

-.02548&quot; y2=&quot;15.22452&quot;/&gt;</defs>
  <path
     inkscape:connector-curvature="0"
     d="M 12,6 C 9.784,6 8,7.784 8,10 v 12 c 0,2.216 1.784,4 4,4 h 8 v 12 2 c 0,1.108 0.892,2 2,2 h 4 c 1.108,0 2,-0.892 2,-2 V 36 26 h 8 c 2.216,0 4,-1.784 4,-4 V 10 C 40,7.784 38.216,6 36,6 Z m 24,4.369141 -1.058594,1.111328 c -1.106461,1.162726 -1.954974,2.653717 -3.279297,4.40039 -0.789681,1.041524 -2.091857,1.860159 -3.722656,2.501954 0,0 0.171825,1.843108 -0.394531,3.273437 -0.607008,1.532989 -2.076835,2.448124 -2.580078,3.541016 L 24.59375,26 23.896484,25.408203 c -0.61628,-0.521886 -2.116852,-1.432603 -3.11914,-2.9375 -0.631879,-0.948739 -0.841828,-2.242802 -0.75,-3.685547 -1.696019,-0.479612 -3.071436,-1.191355 -3.947266,-2.189453 -1.466871,-1.671652 -2.125576,-3.62963 -3.189453,-4.894531 L 12,10.648438 l 1.416016,0.04492 c 2.408487,0.07894 5.009523,0.01336 7.429687,0.603516 0.628515,0.153262 1.206675,0.399936 1.785156,0.693359 -0.688382,0.441084 -1.116707,0.891028 -1.382812,1.246094 -0.0054,0.0072 -0.7411,-0.351842 -1.148438,-0.451172 -1.773409,-0.432445 -2.620318,-0.02639 -4.617187,-0.08008 0.80709,1.276158 0.672579,1.999737 1.630859,3.091797 0.727558,0.829128 2.481645,1.34331 4.054688,1.871094 1.573042,0.527784 3.912138,0.244831 4.207031,0.179687 l -0.05078,1.294922 c -0.389822,0.08825 -0.829772,0.160699 -1.31836,0.185547 -1.465763,0.07454 -2.290621,-0.268066 -2.386718,-0.310547 -0.05606,1.116797 0.203802,2.079393 0.701172,2.826172 0.621497,0.933154 2.078537,1.572966 2.255859,1.648438 0.699973,-1.045634 1.341066,-1.303707 1.814453,-2.404297 0.286989,-0.667233 0.821078,-1.66931 0.06055,-4.041016 -0.473689,-1.477196 -1.084268,-1.834534 -1.707031,-2.224609 l 1.15625,-0.882813 c 0.372296,0.249714 0.795691,0.60284 1.138672,1.039063 0.860891,1.094931 0.801725,2.078308 0.791015,2.195312 0,0 1.622763,-1.236439 2.289063,-2.115234 0.86411,-1.139688 1.180412,-1.882266 1.982422,-3.119141 -1.7797,0.108973 -2.939174,-0.299817 -4.845704,0.285156 -0.51557,0.15819 -1.590266,0.806521 -2.867187,1.910157 -1.27692,1.103637 -1.908902,1.78435 -2.240234,2.503906 L 20.505863,16.25195 c 0.0191,-0.04597 1.91651,-3.357657 3.820313,-4.222656 1.903805,-0.864996 8.069966,-1.476989 10.058594,-1.578125 z"
     id="path10"
     style="fill:#4F575A;stroke-width:0.5" />
  <path
     d="m-93.760041 3.62643c1.648156-2.324039 1.648156-6.324039 7.648156-6.324039 6 0 6 4 8 6-3 0-8 0-10-4-2-4 1-6 2-7 1 2 4 3 2 7-2 4-6 4-9.648156 4.324039z"
     display="none"
     fill="none"
     fill-rule="evenodd"
     stroke="url(#b)"
     id="path12" />
</svg>
