<?xml version="1.0" encoding="UTF-8" standalone="no"?>
<svg
   xmlns:dc="http://purl.org/dc/elements/1.1/"
   xmlns:cc="http://creativecommons.org/ns#"
   xmlns:rdf="http://www.w3.org/1999/02/22-rdf-syntax-ns#"
   xmlns:svg="http://www.w3.org/2000/svg"
   xmlns="http://www.w3.org/2000/svg"
   xmlns:sodipodi="http://sodipodi.sourceforge.net/DTD/sodipodi-0.dtd"
   xmlns:inkscape="http://www.inkscape.org/namespaces/inkscape"
   height="256"
   version="1.1"
   width="256"
   id="svg6"
   sodipodi:docname="xfce4-whiskermenu-stock-colorized.svg"
   inkscape:version="0.92.3 (2405546, 2018-03-11)">
  <metadata
     id="metadata12">
    <rdf:RDF>
      <cc:Work
         rdf:about="">
        <dc:format>image/svg+xml</dc:format>
        <dc:type
           rdf:resource="http://purl.org/dc/dcmitype/StillImage" />
      </cc:Work>
    </rdf:RDF>
  </metadata>
  <defs
     id="defs10" />
  <sodipodi:namedview
     pagecolor="#ffffff"
     bordercolor="#666666"
     borderopacity="1"
     objecttolerance="10"
     gridtolerance="10"
     guidetolerance="10"
     inkscape:pageopacity="0"
     inkscape:pageshadow="2"
     inkscape:window-width="1324"
     inkscape:window-height="745"
     id="namedview8"
     showgrid="false"
     inkscape:zoom="0.921875"
     inkscape:cx="7.5932203"
     inkscape:cy="128"
     inkscape:window-x="38"
     inkscape:window-y="0"
     inkscape:window-maximized="1"
     inkscape:current-layer="svg6" />
  <path
     d="m128 256a128 128 0 1 1 0-256 128 128 0 0 1  0 256z"
     fill="#419236"
     id="path2"
     style="fill:#4f575a;fill-opacity:1" />
  <path
     d="m176.71247 47.16503c-8.77257 1.33197-13.05793 55.65997-9.13767 63.00177 6.7093-4.38075 16.71593-25.32353 19.83835-32.46275-2.43538 6.62425-5.4897 38.0344-4.23218 38.40222 2.65019 3.54452 38.60951-55.74065 28.15842-59.9719-1.50218-.60818-11.59641 17.93248-20.00667 36.8392.0957-8.08746 6.62958-32.52417 3.96767-39.94119-5.32564-1.57757-15.44977 21.63041-19.59787 32.48678-1.29688-5.51301 5.68984-35.67969 1.00995-38.35413zm-79.329316 5.72306c-2.6597.0628-4.74579.86988-5.482598.86568-17.025673 2.39218-11.927898 26.2669-4.713109 48.64601.615974 5.72855-5.331508 3.33036-9.2098-2.66916-13.080129-32.0118-18.860516-30.97873-22.507501-31.90966-3.493318-.72011-15.635249 5.66221-15.365698 18.61196.04563 3.72012 4.678483 21.25015 4.71311 26.69159C29.482978 139.46275 23.240682 165.52572 42.461004 192.47788 61.8428 218.16012 119.52713 219.01732 129.84589 212.96542c3.9367-2.7652 62.80616-31.76936 76.3716-43.01909C226.44085 153.2214 205.69213 132.15003 200.80704 129.2116c-41.89997-27.40422-84.72782-21.69628-85.29285-26.04233-.29633-5.02342-.12001-18.98917-.84162-23.95029C111.8287 56.13232 103.23448 52.74989 97.383154 52.88809ZM154.20497 138.56568c-1.47518 8.05817-17.65675 26.06496-22.67583 31.28447 3.77395-4.25868 33.34163-20.2391 34.19409-19.18909 4.29397 1.07196-35.12111 52.22068-43.06724 44.22154-1.14214-1.14976 8.7295-15.3481 24.8881-27.77375-7.42024 3.21806-28.96994 15.02195-36.8392 15.43783-3.51566-4.30015 19.0979-18.66837 23.92625-26.93204C129.04581 156.55234 99.544224 170.41313 95.267064 167.1329 93.100264 158.52841 144.82294 143.4675 154.20497 138.56568Z"
     fill="#fff"
     fill-rule="evenodd"
     id="path4" />
</svg>
