/* XPM */
static char * top_left_inactive_xpm[] = {
"10 29 12 1",
" 	c None",
".	c #CFCFCF",
"+	c #E9E9E9",
"@	c #DEDEDE",
"#	c #DFDFDF",
"$	c #E0E0E0",
"%	c #DDDDDD",
"&	c #DBDBDB",
"*	c #DADADA",
"=	c #D8D8D8",
"-	c #D6D6D6",
";	c #D7D7D7",
"     .....",
"   ..+++++",
"  .@@@@@@@",
" .########",
" .$$$$$$$$",
".#########",
".$$$$$$$$$",
".$$$$$$$$$",
".#########",
".$$$$$$$$$",
".#########",
".%%%%%%%%%",
".&&&&&&&&&",
".*********",
".=========",
".---------",
".---------",
".;;;;;;;;;",
".;;;;;;;;;",
".;;;;;;;;;",
".;;;;;;;;;",
".;;;;;;;;;",
".---------",
".;;;;;;;;;",
".---------",
".;;;;;;;;;",
".=========",
".;;;;;;;;;",
".;;;;;;;;;"};
