/* XPM */
static char * top_right_active_xpm[] = {
"10 29 11 1",
" 	c None",
".	c #C1C1C1",
"+	c #F1F1F1",
"@	c #E8E8E8",
"#	c #E9E9E9",
"$	c #E4E4E4",
"%	c #E0E0E0",
"&	c #DBDBDB",
"*	c #D7D7D7",
"=	c #D6D6D6",
"-	c #D8D8D8",
".....     ",
"+++++..   ",
"@@@@@@@.  ",
"@@@@@@@@. ",
"########. ",
"@@@@@@@@@.",
"#########.",
"#########.",
"@@@@@@@@@.",
"#########.",
"@@@@@@@@@.",
"$$$$$$$$$.",
"%%%%%%%%%.",
"&&&&&&&&&.",
"*********.",
"=========.",
"*********.",
"=========.",
"*********.",
"*********.",
"*********.",
"*********.",
"=========.",
"*********.",
"=========.",
"*********.",
"---------.",
"*********.",
"*********."};
